# xmcd
#
# Track frame offsets:
#	150
#	16648
#	30043
#	44861
#	58459
#	77032
#	87683
#	102668
#	122424
#	136742
#	149092
#	164625
#	175693
#	190251
#	205298
#	216926
#	226942
#	241535
#	256043
#	266726
#	283579
#	297953
#
# Disc length: 4256 seconds
#
# Revision: 4
# Processed by: cddbd v1.5.2PL0 Copyright (c) Steve Scherf et al.
# Submitted via: EasyCDDAExtractor 16.0.8.2
#
DISCID=44109e16
DTITLE=Νταλάρας Γιώργος - Τα χρώματα του χρόνου 1-1
DYEAR=2000
DGENRE=Ποικίλη
TTITLE0=Κάπου νυχτώνει [Σ. Κουγιουμτζής]
TTITLE1=Πού 'ναι τα χρόνια [Σ. Κουγιουμτζής-Ά. Δασκαλόπουλος]
TTITLE2=Έχω έναν καφενέ [Μ. Λοΐζος-Λ. Παπαδόπουλος]
TTITLE3=Ήταν πέντε, ήταν έξι [Σ. Κουγιουμτζής]
TTITLE4=Του κάτω κόσμου τα πουλιά [Σ. Κουγιουμτζής-Μ. Ελευθερίου]
TTITLE5=Το σακάκι μου κι αν στάζει [Σ. Κουγιουμτζής-Ά. Δασκαλόπουλος]
TTITLE6=Αχ, χελιδόνι μου [Μ. Λοΐζος-Λ. Παπαδόπουλος]
TTITLE7=Μάννα, δεν φυτέψαμε [Μ. Λοΐζος-Λ. Παπαδόπουλος]
TTITLE8=Όλα καλά [Σ. Κουγιουμτζής]
TTITLE9=Κάποιος χτύπησε την πόρτα [Σ. Κουγιουμτζής-Λ. Παπαδόπουλος]
TTITLE10=Ο θάνατος του ποιητή [Α. Καλδάρας-Πυθαγόρας]
TTITLE11=Στα ψηλά τα παραθύρια [Σ. Κουγιουμτζής-Λ. Παπαδόπουλος]
TTITLE12=Μέσ' στου Βοσπόρου τα στενά [Α. Καλδάρας-Πυθαγόρας]
TTITLE13=Η Σμύρνη [Α. Καλδάρας-Πυθαγόρας]
TTITLE14=Εδώ το φως [Μ. Θεοδωράκης-Γ. Ρίτσος]
TTITLE15=Κουβέντα μ' ένα λουλούδι [Μ. Θεοδωράκης-Γ. Ρίτσος]
TTITLE16=Στην αλάνα [Γ. Σπανός-Λ. Παπαδόπουλος]
TTITLE17=Πάγωσε η τσιμινιέρα [Μ. Λοΐζος-Φώντας Λάδης]
TTITLE18=Το δέντρο [Μ. Λοΐζος-Φώντας Λάδης]
TTITLE19=Ήλιε μου σε παρακαλώ [Μ. Λοΐζος-Λ. Παπαδόπουλος]
TTITLE20=Γιορτή Ζεϊμπέκηδων [Α. Καλδάρας-Πυθαγόρας]
TTITLE21=Μη μού θυμώνεις μάτια μου [Σ. Κουγιουμτζής]
EXTD=
EXTT0=
EXTT1=
EXTT2=
EXTT3=
EXTT4=
EXTT5=
EXTT6=
EXTT7=
EXTT8=
EXTT9=
EXTT10=
EXTT11=
EXTT12=
EXTT13=
EXTT14=
EXTT15=
EXTT16=
EXTT17=
EXTT18=
EXTT19=
EXTT20=
EXTT21=
PLAYORDER=
